<?xml version="1.0" standalone="no"?>
<!DOCTYPE svg PUBLIC "-//W3C//DTD SVG 20010904//EN"
 "http://www.w3.org/TR/2001/REC-SVG-20010904/DTD/svg10.dtd">
<svg version="1.0" xmlns="http://www.w3.org/2000/svg"
 width="500.000000pt" height="500.000000pt" viewBox="0 0 500.000000 500.000000"
 preserveAspectRatio="xMidYMid meet">
<metadata>
Created by potrace 1.11, written by Peter Selinger 2001-2013
</metadata>
<g transform="translate(0.000000,500.000000) scale(0.100000,-0.100000)"
fill="#000000" stroke="none">
<path d="M2175 4808 c-137 -12 -396 -80 -436 -115 -8 -7 -21 -13 -28 -13 -44
0 -392 -236 -374 -254 3 -3 1 -6 -5 -6 -21 0 -165 -164 -223 -255 -45 -71 -63
-100 -65 -105 0 -3 -19 -43 -41 -90 -62 -130 -113 -310 -129 -455 -4 -43 -4
-274 1 -310 9 -71 25 -152 34 -183 9 -32 11 -36 16 -57 11 -44 32 -107 48
-145 51 -122 76 -161 78 -123 0 10 2 25 4 33 1 8 6 35 10 59 3 23 10 54 15 67
5 13 7 24 4 24 -4 0 -1 7 6 15 7 8 10 15 6 15 -7 0 33 110 47 128 5 6 6 12 3
12 -4 0 -1 10 6 23 7 12 13 24 13 27 11 45 154 272 214 340 105 118 307 290
339 290 7 0 12 5 12 10 0 6 5 10 10 10 6 0 28 11 50 25 21 14 45 26 52 27 7 2
15 6 18 9 7 7 132 60 150 62 8 2 20 6 26 10 12 7 150 41 209 51 91 17 202 19
848 20 l708 1 36 40 c77 87 160 179 201 224 23 25 55 60 70 76 15 17 47 53 72
81 25 27 77 85 116 129 40 44 83 92 95 106 122 133 174 192 177 198 3 9 -2291
8 -2393 -1z"/>
<path d="M2397 3664 c-1 -1 -24 -5 -52 -8 -54 -7 -59 -8 -120 -21 -22 -5 -42
-9 -45 -10 -12 -2 -87 -28 -115 -40 -16 -7 -45 -18 -62 -25 -18 -7 -33 -16
-33 -21 0 -5 -6 -9 -14 -9 -17 0 -127 -66 -138 -82 -4 -7 -8 -10 -8 -6 0 12
-47 -29 -140 -122 -95 -94 -130 -135 -130 -150 0 -6 -4 -10 -10 -10 -5 0 -10
-5 -10 -12 0 -6 -6 -19 -14 -27 -23 -27 -75 -129 -69 -135 4 -3 1 -6 -5 -6 -7
0 -12 -4 -12 -9 0 -5 -5 -22 -12 -38 -6 -15 -12 -30 -13 -33 -19 -62 -35 -121
-39 -142 -3 -15 -7 -31 -10 -36 -16 -26 -24 -266 -13 -362 7 -53 32 -181 37
-187 2 -2 3 -6 4 -10 1 -5 4 -13 8 -19 4 -6 9 -22 12 -36 5 -28 100 -225 115
-238 4 -3 19 -25 35 -49 16 -24 46 -62 67 -83 22 -22 39 -42 39 -44 0 -2 16
-20 35 -38 19 -19 35 -32 35 -30 0 2 8 -4 18 -13 34 -33 70 -61 93 -74 13 -7
30 -18 37 -26 8 -7 18 -11 23 -8 5 4 9 2 9 -4 0 -11 122 -71 204 -101 202 -74
475 -85 681 -28 22 6 45 12 50 13 52 11 220 91 291 139 113 77 134 92 134 104
0 6 7 12 16 12 8 0 12 4 9 10 -3 5 -1 10 5 10 6 0 22 11 36 25 14 14 23 25 20
25 -2 0 11 16 30 35 19 19 46 54 61 78 15 23 30 44 33 47 34 34 142 283 155
360 9 55 15 86 20 110 8 34 8 289 1 320 -4 14 -9 41 -12 60 -3 19 -10 50 -16
68 -5 18 -11 39 -13 45 -1 7 -6 27 -10 45 -4 17 -11 32 -15 32 -3 0 -7 6 -7
13 0 16 -65 151 -75 155 -4 2 -8 8 -8 13 0 12 -69 113 -104 153 -14 16 -26 33
-26 38 0 4 -7 8 -15 8 -8 0 -15 3 -15 8 0 22 -154 152 -240 201 -98 56 -234
115 -295 127 -11 2 -40 8 -65 13 -83 19 -124 23 -228 25 -57 1 -104 1 -105 0z"/>
<path d="M3929 2300 c-2 -33 -4 -48 -9 -60 -1 -3 -3 -14 -4 -25 -16 -111 -91
-311 -165 -440 -36 -63 -129 -193 -168 -235 -13 -14 -23 -28 -23 -32 0 -5 -7
-8 -15 -8 -8 0 -15 -4 -15 -9 0 -10 -51 -62 -93 -94 -15 -12 -40 -32 -55 -45
-24 -19 -58 -43 -162 -111 -58 -38 -290 -138 -290 -124 0 3 -7 0 -15 -7 -8 -6
-19 -9 -25 -5 -5 3 -10 2 -10 -3 0 -5 -6 -9 -12 -10 -7 0 -20 -3 -28 -5 -27
-7 -84 -18 -115 -22 -16 -2 -30 -4 -30 -5 0 -8 -197 -11 -807 -13 l-708 -2
-31 -35 c-18 -19 -64 -71 -103 -114 -39 -44 -78 -87 -86 -96 -32 -34 -197
-217 -230 -254 -19 -21 -48 -54 -65 -71 -16 -18 -59 -66 -95 -106 -36 -40 -86
-96 -112 -123 -25 -28 -45 -53 -43 -56 5 -8 2364 -4 2425 4 178 24 343 76 500
158 52 27 97 53 100 56 3 4 17 13 32 21 15 8 36 21 45 30 10 9 41 34 68 55 63
49 225 217 225 233 0 6 4 13 8 15 19 7 102 140 149 238 45 93 88 207 98 258 2
9 4 17 5 17 1 0 3 7 5 15 43 198 50 399 19 590 -4 28 -35 152 -48 195 -15 49
-77 195 -98 230 l-18 30 -1 -35z"/>
</g>
</svg>
