<?xml version="1.0" encoding="utf-8"?>
<!-- Generator: Adobe Illustrator 19.2.1, SVG Export Plug-In . SVG Version: 6.00 Build 0)  -->
<svg version="1.1" id="layer" xmlns="http://www.w3.org/2000/svg" xmlns:xlink="http://www.w3.org/1999/xlink" x="0px" y="0px"
	 viewBox="0 0 652 652" style="enable-background:new 0 0 652 652;" xml:space="preserve">
<style type="text/css">
	.st0{fill:#ED1B2E;}
</style>
<g>
	<path class="st0" d="M268.1,341.4c6,0,9.5-5.3,9.5-11.5c0-6.3-3.4-11.6-9.5-11.6c-6.4,0-9.5,5.3-9.5,11.6
		C258.6,336.1,262.1,341.4,268.1,341.4 M268.1,352c-14.4,0-24.6-8.6-24.6-22.1c0-13.3,10.7-22.2,24.6-22.2c14,0,24.7,8.8,24.7,22.2
		C292.8,343.4,282.4,352,268.1,352"/>
	<path class="st0" d="M444.9,329.9c0-5.7-3.2-10.7-8.9-10.7c-5,0-9,4.2-9,10.7c0,6.3,3.3,10.7,9,10.7
		C441.2,340.6,444.9,336.4,444.9,329.9 M412.6,351.1v-59.8h14.7v20.5h0.2c1-0.7,5.8-4.1,12.8-4.1c11.5,0,19.9,9.2,19.9,21.4
		c0,15.2-9.3,22.9-20,22.9c-8.1,0-12.1-3.7-13.1-4.8h-0.2l-0.2,3.9H412.6z"/>
	<path class="st0" d="M340.9,287.3c-4.5,0-8.3,3.7-8.3,8.3s3.7,8.3,8.3,8.3c4.6,0,8.3-3.7,8.3-8.3S345.4,287.3,340.9,287.3
		 M333.5,308.7h14.8v42.4h-14.8V308.7z"/>
	<path class="st0" d="M523.2,351.1h14.4v-21.9c0-5.1,3.4-8.6,7.8-8.6c5,0,7.8,3.2,7.8,8.6v21.9h14.4v-25.5c0-9.6-6.2-17.8-17.5-17.8
		c-7.6,0-11.5,4.1-13.3,5.7h-0.3l-0.1-4.7h-12.9L523.2,351.1"/>
	<polygon class="st0" points="576.6,351.1 591.3,351.1 591.3,331.5 591.4,331.5 604.5,351.1 620.9,351.1 605.1,328.7 620.4,308.8 
		604.1,308.8 591.4,326.3 591.3,326.3 591.3,291.3 576.6,291.3 	"/>
	<path class="st0" d="M239.7,309.4c-1.1-0.3-5.2-1.7-10.5-1.7c-13.3,0-23.3,8.3-23.3,22.2c0,12.6,9,22.2,22.7,22.2
		c5.8,0,10.1-1.6,11.1-1.8l-0.7-12.4c-1.1,0.5-4.1,2.2-7.5,2.2c-6,0-10.3-4.2-10.3-10.1c0-6.2,4.7-10.2,10.5-10.2
		c3.3,0,6.2,1.5,7.3,2.1L239.7,309.4"/>
	<path class="st0" d="M370.5,329.5c0,7,3.9,11.4,9,11.4c4.6,0,9.1-4.3,9.1-10.8c0-6.6-4-11.1-9.1-11.1
		C374.2,319,370.5,323.7,370.5,329.5 M403.1,308.7v42.4h-14.3l-0.2-4.3h-0.3c-1.6,1.4-4.9,5.2-14.1,5.2c-10.2,0-19.2-8.9-19.2-22.2
		c0-12.3,8-22.1,20.2-22.1c8.3,0,11.7,3.7,13,4.8h0.4l0.1-3.8H403.1z"/>
	<path class="st0" d="M481.1,329.5c0,7,3.9,11.4,9,11.4c4.6,0,9.1-4.3,9.1-10.8c0-6.6-4-11.1-9.1-11.1
		C484.8,319,481.1,323.7,481.1,329.5 M513.7,308.7v42.4h-14.3l-0.2-4.3h-0.3c-1.6,1.4-4.9,5.2-14.1,5.2c-10.2,0-19.2-8.9-19.2-22.2
		c0-12.3,8-22.1,20.2-22.1c8.3,0,11.7,3.7,13,4.8h0.4l0.1-3.8H513.7z"/>
	<path class="st0" d="M158.6,349.6c4.1,1.2,10.4,2.4,17,2.4c12.6,0,25.1-4.5,25.1-18.3c0-19-26.1-16.3-26.1-23.9c0-3.9,4-4.7,8-4.7
		c5.5,0,12.4,2.6,13.9,3.3l1.2-13.1c-3.8-1.3-9.6-2-15-2c-12.4,0-24.7,4.9-24.7,17.2c0,18.6,26.1,14.7,26.1,24.5
		c0,3.8-3.7,5.2-8.5,5.2c-6.6,0-12.8-3.3-15.5-4.5L158.6,349.6"/>
	<path class="st0" d="M326.3,339.6c-0.7,0.2-2.7,0.7-4.1,0.7c-3,0-6.3-1.4-6.3-6.6v-14.3h9.3v-10.7H316v-13.7h-14.7v13.7h-6.5v10.7
		h6.5v16.8c0,9.2,4.3,15.8,15.2,15.8c3.2,0,6.1-0.4,8.1-0.8L326.3,339.6"/>
	<path class="st0" d="M106.5,322.7c0.4,18.3-16.2,32.1-30,32.1H42.3l-21.5,21.4h55.3c17.7,0,34.6-15.9,34.6-34.8
		c0-5.6-0.7-12.8-4.2-18.3L106.5,322.7 M100.7,336.2c2.1-3.8,3.2-8,3.4-12.1H88.6c0,3.8-0.6,7.9-2,12.1H100.7z M85.5,338.6
		c-1.8,4.5-5.9,10.3-10,13.5c7.9,0,16.9-3.4,23.5-13.5H85.5z M83.8,336.2c1.4-3.8,2-8,2.4-12.1H62.7c0.4,4.1,1,8.3,2.4,12.1H83.8z
		 M62.4,336.2c-1.4-4.2-2.1-8.3-2.1-12.1H44.7c0.4,4.1,1.4,8.3,3.4,12.1H62.4z M74.5,349.6c3.1-2.8,6.5-7.3,8.3-11.1H66.1
		C67.9,342.4,71.3,346.9,74.5,349.6 M49.6,338.6c6.9,10,15.9,13.5,23.9,13.5c-4.2-3.2-8.6-9-10.1-13.5H49.6z M86.5,309.6
		c1.4,3.7,2,7.9,2,12.1h15.5c-0.3-4.2-1.3-8.4-3.4-12.1H86.5z M99,306.8c-6.6-9.6-15.6-13.5-23.5-13.5c4.1,3.1,8.3,8.9,10,13.5H99z
		 M65.1,309.6c-1.4,3.7-2,7.9-2.4,12.1h23.5c-0.4-4.2-1-8.4-2.4-12.1H65.1z M48.2,309.6c-2.1,3.7-3.1,7.9-3.4,12.1h15.5
		c0-4.2,0.7-8.4,2.1-12.1H48.2z M74.5,296c-3.1,2.8-6.6,7-8.3,10.8h16.6C81,303,77.5,298.8,74.5,296 M63.4,306.8
		c1.4-4.6,5.9-10.4,10.1-13.5c-8,0-17,3.8-23.9,13.5H63.4z M42.3,322.3c-3.4-5.5-4.2-12.7-4.2-18.3c0-18.9,16.9-34.9,34.6-34.9H128
		l-21.5,21.6H72.3C58.6,290.7,41.9,304.7,42.3,322.3"/>
</g>
</svg>
